<svg width="173" height="37" viewBox="0 0 173 37" fill="none" xmlns="http://www.w3.org/2000/svg">
<path d="M5.83224 35.88C5.70424 35.88 5.59224 35.832 5.49624 35.736C5.41624 35.64 5.37624 35.528 5.37624 35.4L7.24824 8.97603C7.44024 6.36803 8.50424 4.32003 10.4402 2.83203C12.3762 1.34403 15.0642 0.60003 18.5042 0.60003C19.9122 0.60003 21.2082 0.712029 22.3922 0.936028C23.5922 1.14403 24.6162 1.42403 25.4642 1.77603C26.3122 2.11203 26.7522 2.32003 26.7842 2.40003C26.8162 2.48003 26.8162 2.56003 26.7842 2.64003L25.6562 5.61603C25.6082 5.69603 25.5442 5.76003 25.4642 5.80803C25.4002 5.84003 25.0322 5.73603 24.3602 5.49603C23.6882 5.25603 22.8722 5.04003 21.9122 4.84803C20.9522 4.65603 19.9442 4.56003 18.8882 4.56003C16.7762 4.56003 15.1682 4.97603 14.0642 5.80803C12.9602 6.64003 12.3442 7.90403 12.2162 9.60003L12.0002 12.72L12.0242 13.392L10.4642 35.448C10.4642 35.576 10.4162 35.68 10.3202 35.76C10.2402 35.84 10.1362 35.88 10.0082 35.88H5.83224ZM27.9362 35.88C27.8082 35.88 27.6962 35.832 27.6002 35.736C27.5202 35.64 27.4802 35.528 27.4802 35.4L29.3522 8.97603C29.5442 6.36803 30.6082 4.32003 32.5442 2.83203C34.4802 1.34403 37.1682 0.60003 40.6082 0.60003C42.0162 0.60003 43.3122 0.712029 44.4962 0.936028C45.6962 1.14403 46.7202 1.42403 47.5682 1.77603C48.4162 2.11203 48.8562 2.32003 48.8882 2.40003C48.9202 2.48003 48.9202 2.56003 48.8882 2.64003L47.7602 5.61603C47.7122 5.69603 47.6482 5.76003 47.5682 5.80803C47.5042 5.84003 47.1362 5.73603 46.4642 5.49603C45.7922 5.25603 44.9762 5.04003 44.0162 4.84803C43.0562 4.65603 42.0482 4.56003 40.9922 4.56003C38.8802 4.56003 37.2722 4.97603 36.1682 5.80803C35.0642 6.64003 34.4482 7.90403 34.3202 9.60003L34.1042 12.72L34.1282 13.392L32.5682 35.448C32.5682 35.576 32.5202 35.68 32.4242 35.76C32.3442 35.84 32.2402 35.88 32.1122 35.88H27.9362ZM0.384238 15.288C0.272238 15.288 0.176238 15.256 0.0962384 15.192C0.0322384 15.112 0.00823838 15.016 0.0242383 14.904L0.240238 11.544C0.256238 11.448 0.296238 11.368 0.360238 11.304C0.440238 11.224 0.528238 11.184 0.624238 11.184H9.76824L9.50424 15.288H0.384238ZM31.0802 15.312L31.3442 11.184H45.6482C45.7602 11.184 45.8482 11.224 45.9122 11.304C45.9922 11.384 46.0242 11.48 46.0082 11.592L45.7682 14.952C45.7682 15.048 45.7282 15.136 45.6482 15.216C45.5682 15.28 45.4802 15.312 45.3842 15.312H31.0802ZM9.43224 15.288L9.72024 11.184H31.3682L31.0802 15.288H9.43224ZM64.2351 36.696C58.7471 36.696 54.4271 35.432 51.2751 32.904C48.1391 30.376 46.7071 27.192 46.9791 23.352C47.2511 19.48 49.1151 16.336 52.5711 13.92C56.0431 11.488 60.4271 10.272 65.7231 10.272C70.9871 10.272 75.1471 11.424 78.2031 13.728C81.2751 16.032 82.6911 18.952 82.4511 22.488L82.3551 24.12C82.3391 24.232 82.2911 24.328 82.2111 24.408C82.1311 24.472 82.0191 24.504 81.8751 24.504H49.4991L49.7391 21.312H77.6751V21.288C77.5791 19.24 76.4991 17.552 74.4351 16.224C72.3711 14.896 69.4751 14.232 65.7471 14.232C61.8431 14.232 58.6351 15.048 56.1231 16.68C53.6111 18.296 52.2511 20.528 52.0431 23.376C51.8511 26.16 52.9231 28.424 55.2591 30.168C57.5951 31.912 60.7231 32.784 64.6431 32.784C66.6911 32.784 68.4991 32.632 70.0671 32.328C71.6351 32.024 73.0751 31.616 74.3871 31.104C75.6991 30.576 77.1071 29.88 78.6111 29.016C78.7391 28.936 78.8431 28.904 78.9231 28.92C79.0191 28.936 79.0911 28.992 79.1391 29.088L80.7711 31.656C80.8191 31.736 80.8271 31.824 80.7951 31.92C80.7791 32.016 80.7071 32.104 80.5791 32.184C79.0111 33.224 77.4431 34.064 75.8751 34.704C74.3071 35.344 72.5711 35.832 70.6671 36.168C68.7631 36.52 66.6191 36.696 64.2351 36.696ZM91.4455 35.88C91.3175 35.88 91.2135 35.832 91.1335 35.736C91.0535 35.64 91.0135 35.528 91.0135 35.4L92.8375 9.60003C93.0295 6.99203 94.0775 4.97603 95.9815 3.55203C97.9015 2.12803 100.549 1.41603 103.925 1.41603H117.749L117.725 5.32803H104.261C102.277 5.32803 100.749 5.72003 99.6775 6.50403C98.6055 7.28803 98.0055 8.52803 97.8775 10.224L96.1015 35.448C96.0855 35.56 96.0295 35.664 95.9335 35.76C95.8535 35.84 95.7495 35.88 95.6215 35.88H91.4455ZM86.1655 15.264C86.0535 15.264 85.9575 15.232 85.8775 15.168C85.8135 15.088 85.7895 14.992 85.8055 14.88L86.0215 11.52C86.0375 11.424 86.0775 11.344 86.1415 11.28C86.2215 11.2 86.3095 11.16 86.4055 11.16H95.5495L95.2855 15.264H86.1655ZM95.2135 15.288L95.4775 11.16H109.781C109.893 11.16 109.981 11.2 110.045 11.28C110.125 11.36 110.157 11.456 110.141 11.568L109.901 14.928C109.901 15.024 109.861 15.112 109.781 15.192C109.701 15.256 109.613 15.288 109.517 15.288H95.2135ZM113.405 35.88C113.277 35.88 113.165 35.832 113.069 35.736C112.989 35.64 112.949 35.528 112.949 35.4L115.325 1.84803C115.325 1.72003 115.373 1.61603 115.469 1.53603C115.565 1.45603 115.669 1.41603 115.781 1.41603H119.957C120.085 1.41603 120.189 1.46403 120.269 1.56003C120.365 1.65603 120.405 1.76803 120.389 1.89603L118.037 35.448C118.021 35.576 117.965 35.68 117.869 35.76C117.789 35.84 117.693 35.88 117.581 35.88H113.405ZM126.378 35.88C126.25 35.88 126.138 35.832 126.042 35.736C125.946 35.64 125.906 35.528 125.922 35.4L127.602 11.52C127.618 11.408 127.666 11.312 127.746 11.232C127.842 11.136 127.946 11.088 128.058 11.088H132.282C132.426 11.088 132.538 11.136 132.618 11.232C132.714 11.328 132.754 11.448 132.738 11.592L131.058 35.448C131.042 35.576 130.986 35.68 130.89 35.76C130.81 35.84 130.714 35.88 130.602 35.88H126.378ZM130.794 6.50403C129.818 6.50403 128.994 6.19203 128.322 5.56803C127.666 4.94403 127.338 4.17603 127.338 3.26403C127.338 2.33603 127.666 1.56003 128.322 0.936028C128.978 0.31203 129.794 3.05176e-05 130.77 3.05176e-05C131.762 3.05176e-05 132.586 0.31203 133.242 0.936028C133.898 1.56003 134.226 2.33603 134.226 3.26403C134.226 4.17603 133.898 4.94403 133.242 5.56803C132.586 6.19203 131.77 6.50403 130.794 6.50403ZM139.159 35.4L140.839 11.52C140.839 11.408 140.879 11.312 140.959 11.232C141.055 11.152 141.159 11.112 141.271 11.112H145.303C145.431 11.112 145.535 11.152 145.615 11.232C145.711 11.312 145.751 11.416 145.735 11.544L145.351 17.592L144.007 16.536H145.495C146.791 14.648 148.607 13.136 150.943 12C153.295 10.848 156.079 10.272 159.295 10.272C163.439 10.272 166.663 11.312 168.967 13.392C171.287 15.472 172.319 18.328 172.063 21.96L171.127 35.448C171.127 35.576 171.079 35.68 170.983 35.76C170.903 35.84 170.799 35.88 170.671 35.88H166.495C166.367 35.88 166.255 35.832 166.159 35.736C166.079 35.64 166.047 35.528 166.063 35.4L166.879 23.64C167.087 20.648 166.407 18.376 164.839 16.824C163.271 15.256 160.831 14.472 157.519 14.472C153.967 14.472 151.047 15.384 148.759 17.208C146.471 19.032 145.223 21.376 145.015 24.24L144.223 35.448C144.223 35.576 144.175 35.68 144.079 35.76C143.999 35.84 143.895 35.88 143.767 35.88H139.615C139.471 35.88 139.351 35.832 139.255 35.736C139.175 35.64 139.143 35.528 139.159 35.4Z" fill="currentColor"/>
</svg>
