<svg width="160" height="160" viewBox="0 0 160 160" fill="none" xmlns="http://www.w3.org/2000/svg">
<g clip-path="url(#clip0_11206_115)">
<path d="M80 160C124.183 160 160 124.183 160 80C160 35.8172 124.183 0 80 0C35.8172 0 0 35.8172 0 80C0 124.183 35.8172 160 80 160Z" fill="url(#paint0_linear_11206_115)"/>
<path d="M37.4719 92.688L37.6959 87.632L69.7919 69.008H78.2719L37.4719 92.688ZM34.0479 102V56.176H39.1679V102H34.0479ZM72.3199 102L50.5279 83.088L54.7199 80.56L79.3918 102H72.3199ZM106.734 103.12C103.427 103.12 100.462 102.896 97.8378 102.448C95.2351 102.021 92.8138 101.424 90.5738 100.656C88.3338 99.8667 86.5098 99.0987 85.1018 98.352C83.7151 97.6053 83.0219 97.232 83.0219 97.232L85.4539 93.328C85.4539 93.328 86.0725 93.6587 87.3098 94.32C88.5685 94.96 90.2432 95.664 92.3339 96.432C94.4459 97.2 96.6965 97.7867 99.0858 98.192C101.475 98.576 104.078 98.768 106.894 98.768C112.121 98.768 116.174 98.192 119.054 97.04C121.955 95.888 123.406 94.3307 123.406 92.368C123.406 90.2987 122.073 88.976 119.406 88.4C116.739 87.8027 112.462 87.3867 106.574 87.152C98.2326 86.7893 92.6646 85.8613 89.8699 84.368C87.0966 82.8747 85.7099 80.7093 85.7099 77.872C85.7099 74.5867 87.5659 72.1013 91.2779 70.416C94.9899 68.7307 100.078 67.888 106.542 67.888C109.465 67.888 112.025 68.0373 114.222 68.336C116.441 68.6133 118.574 69.008 120.622 69.52C122.691 70.032 124.323 70.5547 125.518 71.088C126.734 71.6 127.342 71.856 127.342 71.856L125.454 75.952C125.454 75.952 124.878 75.7067 123.726 75.216C122.595 74.7253 121.102 74.2347 119.246 73.744C117.39 73.2533 115.459 72.8907 113.454 72.656C111.47 72.4 109.134 72.272 106.446 72.272C101.305 72.272 97.4326 72.7307 94.8299 73.648C92.2486 74.544 90.9579 75.8773 90.9579 77.648C90.9579 79.2267 91.8752 80.3893 93.7099 81.136C95.5446 81.8827 100.153 82.4053 107.534 82.704C115.833 83.0453 121.422 83.9307 124.302 85.36C127.203 86.7893 128.654 88.9653 128.654 91.888C128.654 95.472 126.777 98.2453 123.022 100.208C119.267 102.149 113.838 103.12 106.734 103.12Z" fill="white"/>
</g>
<defs>
<linearGradient id="paint0_linear_11206_115" x1="46" y1="-7.20844e-07" x2="123.5" y2="160" gradientUnits="userSpaceOnUse">
<stop stop-color="#7EBCFF"/>
<stop offset="0.418269" stop-color="#2969AE"/>
<stop offset="1" stop-color="#112B48"/>
</linearGradient>
<clipPath id="clip0_11206_115">
<rect width="160" height="160" fill="white"/>
</clipPath>
</defs>
</svg>
