<svg width="307" height="67" viewBox="0 0 307 67" fill="none" xmlns="http://www.w3.org/2000/svg">
<path d="M44.528 44.624C34.064 44.624 28.496 40.688 28.496 33.392V32.912H36.8V33.392C36.8 35.984 39.632 37.424 44.864 37.424C49.52 37.424 51.872 36.512 51.872 34.784V34.448C51.872 33.2 50.72 32.48 47.792 32.048L39.296 30.752C32.432 29.744 28.976 26.912 28.976 22.112V21.632C28.976 15.488 34.496 11.888 44.096 11.888C54.224 11.888 59.792 15.68 59.792 22.592V22.976H51.536V22.592C51.536 20.24 49.088 19.088 44.096 19.088C39.776 19.088 37.472 19.904 37.472 21.44V21.776C37.472 22.832 38.528 23.408 41.36 23.84L49.856 25.136C57.104 26.192 60.512 29.072 60.512 34.064V34.544C60.512 40.928 54.656 44.624 44.528 44.624ZM81.5593 44.624C71.0953 44.624 65.5273 40.688 65.5273 33.392V32.912H73.8313V33.392C73.8313 35.984 76.6633 37.424 81.8953 37.424C86.5513 37.424 88.9033 36.512 88.9033 34.784V34.448C88.9033 33.2 87.7513 32.48 84.8233 32.048L76.3273 30.752C69.4633 29.744 66.0073 26.912 66.0073 22.112V21.632C66.0073 15.488 71.5273 11.888 81.1273 11.888C91.2552 11.888 96.8233 15.68 96.8233 22.592V22.976H88.5673V22.592C88.5673 20.24 86.1193 19.088 81.1273 19.088C76.8073 19.088 74.5033 19.904 74.5033 21.44V21.776C74.5033 22.832 75.5593 23.408 78.3913 23.84L86.8873 25.136C94.1353 26.192 97.5433 29.072 97.5433 34.064V34.544C97.5433 40.928 91.6873 44.624 81.5593 44.624ZM103.471 44V12.512H111.439L127.951 31.952V12.512H135.967V44H127.999L111.487 24.512V44H103.471ZM142.799 44V12.512H158.927C170.975 12.512 177.119 17.792 177.119 28.064V28.496C177.119 38.768 171.071 44 158.927 44H142.799ZM158.927 36.416C165.599 36.416 168.479 34.016 168.479 28.64V27.968C168.479 22.64 165.407 20.096 158.879 20.096H151.295V36.416H158.927ZM207.905 44C205.073 44 202.961 43.088 201.713 41.408C199.265 43.472 195.713 44.624 191.441 44.624C184.865 44.624 180.929 41.888 180.929 37.232C180.929 33.344 183.713 30.944 189.041 30.368L200.369 29.12C199.985 27.104 198.209 26.192 194.945 26.192C191.393 26.192 189.425 27.104 189.425 28.688V28.832H181.121V28.688C181.121 22.928 186.497 19.232 195.041 19.232C203.633 19.232 208.673 23.264 208.673 30.128V35.312C208.673 36.32 209.249 36.8 210.449 36.8H212.561V44H207.905ZM189.089 36.848C189.089 38 190.241 38.528 192.497 38.528C195.809 38.528 198.977 37.376 200.465 35.792V34.064L191.393 35.12C189.857 35.312 189.089 35.888 189.089 36.848ZM229.736 44.624C220.472 44.624 215.144 41.504 215.144 36.08V35.888H222.776V36.08C222.776 37.712 224.84 38.384 229.784 38.384C233.672 38.384 235.784 37.904 235.784 36.944V36.704C235.784 35.984 235.016 35.648 232.76 35.408L226.28 34.784C219.032 34.064 215.768 31.856 215.768 27.632V27.152C215.768 22.112 220.856 19.232 229.736 19.232C238.808 19.232 243.656 22.16 243.656 27.728V27.92H236.024V27.728C236.024 26.096 234.2 25.424 229.448 25.424C225.608 25.424 223.592 25.904 223.592 26.768V26.96C223.592 27.68 224.36 28.064 226.328 28.256L232.952 28.928C240.44 29.696 243.752 31.904 243.752 36.176V36.656C243.752 41.648 238.568 44.624 229.736 44.624ZM249.247 44V10.592H257.407V21.536C259.375 20 261.823 19.232 264.703 19.232C272.959 19.232 277.279 23.696 277.279 32.288V44H269.119V32.288C269.119 28.64 267.055 26.72 263.359 26.72C260.719 26.72 258.559 28.016 257.407 30.08V44H249.247Z" fill="white"/>
<path d="M1.072 63V54.952H3.792V57.768H5.264L7.584 54.952H10.64V55.32L7.712 58.872L10.8 62.584V63H7.792L5.376 60.12H3.792V63H1.072ZM15.8634 63.208C12.7594 63.208 10.8874 61.608 10.8874 59.08V58.904C10.8874 56.344 12.7434 54.744 15.8634 54.744C18.9674 54.744 20.7914 56.328 20.7914 58.904V59.08C20.7914 61.64 18.9674 63.208 15.8634 63.208ZM15.8474 60.728C17.1914 60.728 17.9754 60.152 17.9754 59.064V58.936C17.9754 57.816 17.1914 57.224 15.8474 57.224C14.4714 57.224 13.7034 57.8 13.7034 58.936V59.064C13.7034 60.152 14.4874 60.728 15.8474 60.728ZM22.3845 63V54.952H26.2725L28.6245 60.248L30.9765 54.952H34.8485V63H32.2085V57.624L31.8085 58.68L29.8405 63H27.4085L25.4245 58.68L25.0245 57.64V63H22.3845ZM36.9939 63V54.952H46.1779V63H43.4579V57.336H39.7139V63H36.9939ZM56.7913 63C55.8472 63 55.1433 62.696 54.7273 62.136C53.9113 62.824 52.7273 63.208 51.3033 63.208C49.1113 63.208 47.7993 62.296 47.7993 60.744C47.7993 59.448 48.7273 58.648 50.5033 58.456L54.2793 58.04C54.1513 57.368 53.5593 57.064 52.4713 57.064C51.2873 57.064 50.6313 57.368 50.6313 57.896V57.944H47.8633V57.896C47.8633 55.976 49.6553 54.744 52.5033 54.744C55.3673 54.744 57.0473 56.088 57.0473 58.376V60.104C57.0473 60.44 57.2393 60.6 57.6393 60.6H58.3433V63H56.7913ZM50.5193 60.616C50.5193 61 50.9033 61.176 51.6553 61.176C52.7593 61.176 53.8153 60.792 54.3113 60.264V59.688L51.2873 60.04C50.7753 60.104 50.5193 60.296 50.5193 60.616ZM59.5564 63V54.952H62.2764V57.752H66.1804V54.952H68.9004V63H66.1804V60.152H62.2764V63H59.5564ZM71.0408 63V54.952H73.6328V59.704L77.8568 54.952H80.3048V63H77.7128V58.248L73.4888 63H71.0408ZM81.9403 63V62.68L84.5643 60.504C82.8843 60.264 81.8763 59.336 81.8763 57.96V57.8C81.8763 56.04 83.2682 54.952 85.5083 54.952H91.5243V63H88.8043V60.568H88.0203L85.1883 63H81.9403ZM84.6923 57.96C84.6923 58.44 85.0603 58.712 85.7163 58.712H88.8043V57.032H85.7163C85.0603 57.032 84.6923 57.32 84.6923 57.8V57.96ZM93.1058 65.288L94.2258 60.44H97.2178V60.84L95.5858 65.288H93.1058ZM105.416 63V54.952H108.136V57.768H109.608L111.928 54.952H114.984V55.32L112.056 58.872L115.144 62.584V63H112.136L109.72 60.12H108.136V63H105.416ZM120.207 63.208C117.103 63.208 115.231 61.608 115.231 59.08V58.904C115.231 56.344 117.087 54.744 120.207 54.744C123.311 54.744 125.135 56.328 125.135 58.904V59.08C125.135 61.64 123.311 63.208 120.207 63.208ZM120.191 60.728C121.535 60.728 122.319 60.152 122.319 59.064V58.936C122.319 57.816 121.535 57.224 120.191 57.224C118.815 57.224 118.047 57.8 118.047 58.936V59.064C118.047 60.152 118.831 60.728 120.191 60.728ZM128.847 63V57.384H125.583V54.952H134.831V57.384H131.583V63H128.847ZM140.27 63.208C137.166 63.208 135.294 61.608 135.294 59.08V58.904C135.294 56.344 137.15 54.744 140.27 54.744C143.374 54.744 145.198 56.328 145.198 58.904V59.08C145.198 61.64 143.374 63.208 140.27 63.208ZM140.254 60.728C141.598 60.728 142.382 60.152 142.382 59.064V58.936C142.382 57.816 141.598 57.224 140.254 57.224C138.878 57.224 138.11 57.8 138.11 58.936V59.064C138.11 60.152 138.894 60.728 140.254 60.728ZM146.791 65.72V54.952H149.319L149.383 55.592C150.087 55.048 150.983 54.744 152.007 54.744C154.791 54.744 156.551 56.392 156.551 58.888V59.032C156.551 61.528 154.791 63.208 152.007 63.208C151.031 63.208 150.183 62.952 149.511 62.488V65.72H146.791ZM149.511 59.992C149.927 60.424 150.711 60.712 151.591 60.712C152.935 60.712 153.735 60.104 153.735 59.032V58.888C153.735 57.832 152.951 57.24 151.591 57.24C150.695 57.24 149.927 57.512 149.511 57.928V59.992ZM162.582 63.208C159.478 63.208 157.606 61.608 157.606 59.08V58.904C157.606 56.344 159.462 54.744 162.582 54.744C165.686 54.744 167.51 56.328 167.51 58.904V59.08C167.51 61.64 165.686 63.208 162.582 63.208ZM162.566 60.728C163.91 60.728 164.694 60.152 164.694 59.064V58.936C164.694 57.816 163.91 57.224 162.566 57.224C161.19 57.224 160.422 57.8 160.422 58.936V59.064C160.422 60.152 161.206 60.728 162.566 60.728ZM169.103 63V54.952H171.695V59.704L175.919 54.952H178.367V63H175.775V58.248L171.551 63H169.103ZM173.743 54.184C171.359 54.184 170.175 53.256 170.175 51.416V51.272H172.447V51.416C172.447 51.88 172.895 52.136 173.743 52.136C174.495 52.136 174.895 51.896 174.895 51.416V51.272H177.311V51.416C177.311 53.272 176.143 54.184 173.743 54.184ZM186.916 63V54.952H189.636V57.752H193.54V54.952H196.26V63H193.54V60.152H189.636V63H186.916ZM202.736 63.208C199.696 63.208 197.856 61.672 197.856 59.144V58.856C197.856 56.312 199.712 54.744 202.736 54.744C205.808 54.744 207.536 56.216 207.536 58.888V59.704H200.656C200.784 60.552 201.52 61.016 202.72 61.016C203.824 61.016 204.544 60.744 204.688 60.296H207.52C207.216 62.184 205.552 63.208 202.736 63.208ZM204.704 57.96C204.464 57.272 203.776 56.872 202.72 56.872C201.632 56.872 200.944 57.256 200.704 57.96H204.704ZM217.349 63V65.048H214.613V60.6H215.861C216.309 59.912 216.533 59.192 216.549 58.04L216.629 54.952H225.045V60.6H226.533V65.048H223.813V63H217.349ZM218.469 60.6H222.309V57.336H219.093L219.077 58.04C219.045 59.224 218.885 59.928 218.469 60.6ZM231.863 63.208C228.759 63.208 226.887 61.608 226.887 59.08V58.904C226.887 56.344 228.743 54.744 231.863 54.744C234.967 54.744 236.791 56.328 236.791 58.904V59.08C236.791 61.64 234.967 63.208 231.863 63.208ZM231.847 60.728C233.191 60.728 233.975 60.152 233.975 59.064V58.936C233.975 57.816 233.191 57.224 231.847 57.224C230.471 57.224 229.703 57.8 229.703 58.936V59.064C229.703 60.152 230.487 60.728 231.847 60.728ZM238.385 63V54.952H244.289C246.561 54.952 247.809 55.72 247.809 57.16V57.32C247.809 58.008 247.505 58.536 246.913 58.904C247.649 59.256 248.033 59.816 248.033 60.584V60.744C248.033 62.2 246.785 63 244.529 63H238.385ZM241.105 61.096H244.257C244.897 61.096 245.201 60.904 245.201 60.52V60.376C245.201 60.008 244.897 59.832 244.257 59.832H241.105V61.096ZM241.105 58.072H244.033C244.673 58.072 244.977 57.896 244.977 57.512V57.384C244.977 57.016 244.673 56.84 244.033 56.84H241.105V58.072ZM254.08 63.208C251.04 63.208 249.2 61.672 249.2 59.144V58.856C249.2 56.312 251.056 54.744 254.08 54.744C257.152 54.744 258.88 56.216 258.88 58.888V59.704H252C252.128 60.552 252.864 61.016 254.064 61.016C255.168 61.016 255.888 60.744 256.032 60.296H258.864C258.56 62.184 256.896 63.208 254.08 63.208ZM256.048 57.96C255.808 57.272 255.12 56.872 254.064 56.872C252.976 56.872 252.288 57.256 252.048 57.96H256.048ZM260.478 65.72V54.952H263.006L263.07 55.592C263.774 55.048 264.67 54.744 265.694 54.744C268.478 54.744 270.238 56.392 270.238 58.888V59.032C270.238 61.528 268.478 63.208 265.694 63.208C264.718 63.208 263.87 62.952 263.198 62.488V65.72H260.478ZM263.198 59.992C263.614 60.424 264.398 60.712 265.278 60.712C266.622 60.712 267.422 60.104 267.422 59.032V58.888C267.422 57.832 266.638 57.24 265.278 57.24C264.382 57.24 263.614 57.512 263.198 57.928V59.992ZM271.55 63V62.68L274.174 60.504C272.494 60.264 271.486 59.336 271.486 57.96V57.8C271.486 56.04 272.878 54.952 275.118 54.952H281.134V63H278.414V60.568H277.63L274.798 63H271.55ZM274.302 57.96C274.302 58.44 274.67 58.712 275.326 58.712H278.414V57.032H275.326C274.67 57.032 274.302 57.32 274.302 57.8V57.96ZM291.707 63.208C289.195 63.208 287.531 62.104 287.099 60.184H285.995V63H283.275V54.952H285.995V57.752H287.099C287.563 55.848 289.195 54.744 291.707 54.744C294.715 54.744 296.523 56.312 296.523 58.904V59.08C296.523 61.656 294.699 63.208 291.707 63.208ZM291.691 60.728C292.971 60.728 293.707 60.12 293.707 59.064V58.952C293.707 57.832 292.971 57.224 291.691 57.224C290.379 57.224 289.675 57.832 289.675 58.952V59.064C289.675 60.136 290.395 60.728 291.691 60.728ZM300.238 63V57.384H296.974V54.952H306.222V57.384H302.974V63H300.238Z" fill="currentColor"/>
</svg>
