<svg width="131" height="42" viewBox="0 0 131 42" fill="none" xmlns="http://www.w3.org/2000/svg">
<g clip-path="url(#clip0_5_41)">
<path fill-rule="evenodd" clip-rule="evenodd" d="M21.4701 41.8808C17.3601 41.8808 15.4501 41.2808 12.1301 38.8808C10.0301 41.5808 3.38008 43.6908 3.09008 40.0808C3.09008 37.3708 2.49008 35.0808 1.81008 32.5808C1.00008 29.5008 0.0800781 26.0708 0.0800781 21.1008C0.0800781 9.23078 9.82008 0.300781 21.3601 0.300781C32.9101 0.300781 41.9601 9.67078 41.9601 21.2108C41.9787 26.6674 39.8316 31.9084 35.9902 35.7836C32.1487 39.6589 26.9266 41.8517 21.4701 41.8808ZM21.6401 10.5608C16.0201 10.2708 11.6401 14.1608 10.6701 20.2608C9.87008 25.3108 11.2901 31.4608 12.5001 31.7808C13.0801 31.9208 14.5401 30.7408 15.4501 29.8308C16.9548 30.8703 18.7071 31.4946 20.5301 31.6408C23.3293 31.7754 26.0697 30.8065 28.1622 28.9421C30.2546 27.0778 31.5321 24.467 31.7201 21.6708C31.8295 18.8688 30.8346 16.1358 28.9495 14.0599C27.0643 11.984 24.4396 10.7311 21.6401 10.5708V10.5608Z" fill="white"/>
<path d="M60.3 32.15H55.86V11.15H63.09L67.93 25.56H68.58L73.63 11.15H80.7V32.15H76.25V16.55H75.61L70.11 32.15H66.2L60.95 16.55H60.3V32.15ZM94.59 32.55C92.62 32.55 90.86 32.09 89.29 31.18C87.7372 30.2437 86.4685 28.9024 85.62 27.3C84.7406 25.5483 84.298 23.6098 84.33 21.65C84.33 19.55 84.76 17.67 85.63 16.03C86.4631 14.4165 87.7353 13.0714 89.3 12.15C90.8997 11.2025 92.731 10.7178 94.59 10.75C96.34 10.75 97.89 11.12 99.23 11.87C100.58 12.6 101.68 13.49 102.54 14.54L103.51 11.14H107V32.14H103.53L102.56 28.75C101.633 29.8506 100.507 30.7666 99.24 31.45C97.8102 32.2002 96.2145 32.5785 94.6 32.55H94.59ZM95.72 28.39C97.69 28.39 99.27 27.77 100.49 26.53C101.109 25.8817 101.592 25.1157 101.91 24.2775C102.227 23.4393 102.374 22.5458 102.34 21.65C102.34 19.65 101.72 18.04 100.49 16.8C99.8729 16.1661 99.1292 15.6693 98.3073 15.342C97.4855 15.0146 96.6039 14.864 95.72 14.9C93.78 14.9 92.21 15.53 91 16.8C90.3866 17.4449 89.9094 18.2066 89.5967 19.0399C89.284 19.8731 89.1423 20.7608 89.18 21.65C89.18 23.64 89.78 25.27 91 26.53C91.6156 27.1492 92.3528 27.6342 93.1652 27.9544C93.9776 28.2745 94.8474 28.4228 95.72 28.39ZM115.03 32.15H109.78L116.44 21.4L110.54 11.15H115.8L119.71 18.21H120.48L124.6 11.15H129.73L123.83 21.12L130.5 32.15H125.08L120.6 24.19H119.83L115.03 32.15Z" fill="white"/>
</g>
<defs>
<clipPath id="clip0_5_41">
<rect width="131" height="42" fill="white"/>
</clipPath>
</defs>
</svg>
